<svg xmlns="http://www.w3.org/2000/svg" width="91" height="91" viewBox="0 0 91 91">
  <circle id="Ellipse_51" data-name="Ellipse 51" cx="45.5" cy="45.5" r="45.5" fill="#fff"/>
  <path id="Path_56" data-name="Path 56" d="M22.57,58.162A15.088,15.088,0,0,0,10.6,64.087a40.307,40.307,0,0,0,69.627,1.164,15.1,15.1,0,0,0-12.8-7.093H56.672l-.287-1.636a24.363,24.363,0,0,0,10.7-14.4c1-2.886.989-6.578.989-9.852C68.07,19.506,65.328,6.451,45,6.451c-9.075,0-15.264,2.512-18.907,7.675-2.879,4.083-4.163,9.679-4.163,18.151,0,3.275-.01,6.969.989,9.853a24.369,24.369,0,0,0,10.692,14.4l-.286,1.637ZM45,66.412l0,.006a11.491,11.491,0,0,1-10.708-6.495l.144-2.911A22.5,22.5,0,0,0,44.705,59.88v.011h.106c.063,0,.126,0,.189,0s.125,0,.189,0h.106V59.88a22.506,22.506,0,0,0,10.268-2.873l.137,2.788A11.354,11.354,0,0,1,45,66.412M36.806,49.494a.532.532,0,0,1,.438-.307A73.857,73.857,0,0,1,45,48.421a73.857,73.857,0,0,1,7.756.766.534.534,0,0,1,.178,1.016c-2.319,1.1-4.945,2.411-7.933,2.424h0c-2.984-.012-5.613-1.325-7.934-2.423a.533.533,0,0,1-.26-.709M45,8.166v0c17.026,0,21.048,8.893,21.341,22.415l-2.572,1.41v-.341a1.906,1.906,0,0,0-1.9-1.9H48.443a1.9,1.9,0,0,0-1.832,1.414,9.125,9.125,0,0,0-1.582-.135,7.786,7.786,0,0,0-1.626.169,1.9,1.9,0,0,0-1.843-1.447H28.127a1.9,1.9,0,0,0-1.906,1.9v.341l-2.562-1.405C23.956,17.06,27.973,8.166,45,8.166M62.366,31.647,61.8,37.4a.494.494,0,0,1-.494.494H49.751a1.809,1.809,0,0,1-1.807-1.811V31.641a.5.5,0,0,1,.495-.5h13.43a.494.494,0,0,1,.495.5Zm-20.314-.006V36.08a1.809,1.809,0,0,1-1.807,1.811H28.693A.494.494,0,0,1,28.2,37.4l-.566-5.755a.494.494,0,0,1,.494-.5H41.555a.5.5,0,0,1,.495.5ZM30.77,46.9a17,17,0,0,1-1.349-1.151c-.112-.115-.229-.226-.349-.356a.24.24,0,0,0,.018.026,21.169,21.169,0,0,1-3.511-4.715,19.51,19.51,0,0,1-1.94-8.394v-.157l2.581,1.373.562,3.3a1.906,1.906,0,0,0,1.9,1.9H40.249a3.216,3.216,0,0,0,3.208-3.213V32.759a3.228,3.228,0,0,1,1.565-.347,4.707,4.707,0,0,1,1.517.231v2.869a3.214,3.214,0,0,0,3.212,3.212H61.305a1.906,1.906,0,0,0,1.9-1.9l.562-3.3,2.589-1.372V32.3a19.563,19.563,0,0,1-1.932,8.4,21.2,21.2,0,0,1-3.511,4.715c.005-.009.012-.016.018-.026-.12.127-.234.239-.349.356a17.538,17.538,0,0,1-1.347,1.15c-4.215,2.907-4.26-2.027-14.414-2.027S34.985,49.81,30.77,46.9" transform="translate(0.091 1)" fill="#e46c43"/>
</svg>
