<svg xmlns="http://www.w3.org/2000/svg" width="91" height="91" viewBox="0 0 91 91">
  <circle id="Ellipse_47" data-name="Ellipse 47" cx="45.5" cy="45.5" r="45.5" fill="#fff"/>
  <path id="Path_38" data-name="Path 38" d="M12.7,68.575a6.55,6.55,0,0,1,.6-.54c.028-.022.057-.041.086-.063a6.513,6.513,0,0,1,.552-.384c.053-.032.1-.065.158-.1a6.4,6.4,0,0,1,.635-.327c.021-.01.04-.021.063-.03a6.392,6.392,0,0,1,.737-.263c.064-.018.129-.033.193-.05.2-.05.393-.092.6-.124.075-.012.149-.025.225-.035.106-.013.213-.023.32-.032l4.8-15.057a6.48,6.48,0,0,1,3.7-11.594L34.982,9.809a6.47,6.47,0,0,1-2.314-5.675V4.123a6.515,6.515,0,0,1,.1-.649,39.117,39.117,0,0,0-21.1,66.472h0a6.548,6.548,0,0,1,.427-.658c.026-.038.054-.074.082-.11a6.438,6.438,0,0,1,.475-.559c.014-.014.025-.029.039-.043M29.628,41.34A6.515,6.515,0,0,1,31.8,44.4H45a6.522,6.522,0,0,1,2.523-3.319L38.987,12ZM54.464,77.4h0a6.4,6.4,0,0,1-.4-.5l-.013-.017q-.179-.249-.334-.514l-.029-.047a5.038,5.038,0,0,1-.262-.512c-.014-.029-.029-.056-.041-.085-.072-.163-.136-.331-.194-.5-.015-.043-.032-.083-.046-.125-.053-.16-.094-.324-.134-.489-.012-.054-.029-.106-.041-.16-.034-.164-.058-.331-.081-.5-.007-.057-.02-.111-.026-.169a6.558,6.558,0,0,1-.036-.684,6.479,6.479,0,0,1,2.584-5.172l-4.4-14.984a6.5,6.5,0,0,1-5.877-4.068H31.668a6.5,6.5,0,0,1-5.74,4.061L21.166,67.864A6.483,6.483,0,0,1,23.837,73.1c0,.214-.012.425-.032.633-.009.083-.024.165-.036.248-.016.121-.032.243-.055.362s-.048.209-.075.313-.043.182-.069.271c-.035.12-.076.236-.118.353-.025.067-.048.135-.074.2-.052.13-.109.256-.168.382-.023.048-.045.1-.069.142-.068.137-.142.27-.22.4-.018.03-.035.06-.054.09-.088.141-.18.28-.277.413l-.032.043q-.16.217-.336.419a39.158,39.158,0,0,0,32.7.5,6.354,6.354,0,0,1-.459-.468M45.478,3.474a6.213,6.213,0,0,1,.1.649.078.078,0,0,1,0,.011,6.317,6.317,0,0,1,.036.679,6.479,6.479,0,0,1-2.553,5.154L51.88,40.009A6.488,6.488,0,0,1,55.25,51.49l4.444,15.136c.075,0,.151,0,.226.012s.126.015.189.023c.137.017.271.037.4.062.071.013.141.027.211.043.128.029.254.062.38.1.065.019.13.036.194.056.164.053.326.113.485.178.064.026.124.055.187.083.122.055.243.112.36.174.079.042.156.087.234.133s.165.1.245.149.167.109.248.167.131.1.2.146c.086.066.174.132.256.2.028.024.054.049.081.073a6.577,6.577,0,0,1,.577.575l.063.069c.089.1.173.211.256.32l.074.1c.082.113.162.229.238.348l.039.065a6.479,6.479,0,0,1,.621,1.311h0A39.123,39.123,0,0,0,45.478,3.474m5.673,47.8a4.813,4.813,0,1,0-4.813-4.813,4.813,4.813,0,0,0,4.813,4.813M39.126,9.626a4.813,4.813,0,1,0-4.814-4.813,4.813,4.813,0,0,0,4.814,4.813M59.315,68.288A4.813,4.813,0,1,0,64.129,73.1a4.813,4.813,0,0,0-4.814-4.813M25.645,41.646a4.813,4.813,0,1,0,4.814,4.813,4.813,4.813,0,0,0-4.814-4.813m-8.3,26.642A4.813,4.813,0,1,0,22.156,73.1a4.813,4.813,0,0,0-4.811-4.812" transform="translate(7.005 3)" fill="#e46c43"/>
</svg>
