<svg xmlns="http://www.w3.org/2000/svg" width="91" height="91" viewBox="0 0 91 91">
  <circle id="Ellipse_50" data-name="Ellipse 50" cx="45.5" cy="45.5" r="45.5" fill="#fff"/>
  <path id="Path_56" data-name="Path 56" d="M69.771,3.278a3.807,3.807,0,0,0-6.812-1.759L48.267,19.992a45.01,45.01,0,0,0-12.025-3.764C18.005,13.2,1.845,21.614.145,35.021S11.85,61.744,30.091,64.768s34.4-5.39,36.1-18.795c1.03-8.148-3.522-16.262-11.345-22.05L69.04,6.1a3.779,3.779,0,0,0,.731-2.822M23.047,21.8a4.742,4.742,0,0,1,5.445,4.078,5.027,5.027,0,0,1-4.746,5.1A4.738,4.738,0,0,1,18.3,26.9a5.026,5.026,0,0,1,4.747-5.1M4.215,36.843c-.238-3.114,2.373-5.919,5.833-6.265s6.458,1.9,6.7,5.011-2.373,5.919-5.833,6.27-6.458-1.9-6.7-5.011M19.559,53.364a4.742,4.742,0,0,1-5.445-4.078,5.026,5.026,0,0,1,4.746-5.1A4.742,4.742,0,0,1,24.3,48.266a5.026,5.026,0,0,1-4.747,5.1m13.127,4.771a3.759,3.759,0,0,1-4.3-3.127c-.006-.035-.011-.068-.015-.1a3.977,3.977,0,0,1,3.758-4.037A3.759,3.759,0,0,1,36.428,54c.006.033.011.067.015.1a3.977,3.977,0,0,1-3.758,4.037M23.159,37.9a.5.5,0,0,1-.088-.488.38.38,0,0,1,.252-.28c3.732-.681,10.492-2.591,13.848-7.739a7.33,7.33,0,0,1,7.012-3.088A5.553,5.553,0,0,1,48.9,30.25a7.873,7.873,0,0,1-.558,6.358c-1.5,2.669-4.664,4.716-8.909,5.766A17.043,17.043,0,0,1,23.159,37.9M47.764,57.047a3.759,3.759,0,0,1-4.3-3.127c-.006-.035-.011-.068-.015-.1a3.977,3.977,0,0,1,3.758-4.037,3.759,3.759,0,0,1,4.3,3.127c.006.034.01.068.015.1a3.979,3.979,0,0,1-3.758,4.037M67.893,5.232,49.76,28.268a6.891,6.891,0,0,0-3.6-3.087l17.95-22.8a2.367,2.367,0,1,1,3.8,2.812l-.023.031" transform="matrix(0.995, 0.105, -0.105, 0.995, 10.488, 13.319)" fill="#e46c43"/>
</svg>
